<?xml version="1.0" encoding="utf-8"?>
<!-- Generator: Adobe Illustrator 15.0.0, SVG Export Plug-In  -->
<!DOCTYPE svg PUBLIC "-//W3C//DTD SVG 1.1//EN" "http://www.w3.org/Graphics/SVG/1.1/DTD/svg11.dtd" [
	<!ENTITY ns_flows "http://ns.adobe.com/Flows/1.0/">
]>
<svg version="1.1"
	 xmlns="http://www.w3.org/2000/svg" xmlns:xlink="http://www.w3.org/1999/xlink" xmlns:a="http://ns.adobe.com/AdobeSVGViewerExtensions/3.0/"
	 x="0px" y="0px" width="170px" height="67px" viewBox="0 0 170 67" enable-background="new 0 0 170 67" xml:space="preserve">
<defs>
</defs>
<path fill="#FFFFFF" d="M40.421,61.948l-0.625,3.203h-1.532l2.781-13.922h1.27l-0.121,1.289h0.061
	c0.497-0.416,1.031-0.775,1.602-1.078c0.571-0.303,1.165-0.453,1.783-0.453c0.859,0,1.544,0.306,2.055,0.916
	c0.51,0.611,0.766,1.488,0.766,2.63c0,0.94-0.148,1.821-0.443,2.64c-0.295,0.82-0.688,1.531-1.179,2.136
	c-0.491,0.604-1.055,1.081-1.692,1.431c-0.638,0.35-1.293,0.523-1.965,0.523c-0.511,0-0.967-0.131-1.37-0.393
	s-0.732-0.601-0.987-1.018h-0.04L40.421,61.948z M45.076,52.276c-0.457,0-0.957,0.142-1.501,0.424
	c-0.544,0.281-1.051,0.678-1.521,1.188l-0.927,4.675c0.269,0.51,0.571,0.873,0.907,1.088c0.335,0.215,0.698,0.322,1.088,0.322
	c0.484,0,0.954-0.145,1.411-0.434c0.457-0.288,0.856-0.674,1.199-1.158c0.343-0.483,0.618-1.037,0.826-1.662
	c0.208-0.625,0.313-1.279,0.313-1.965c0-0.832-0.158-1.453-0.474-1.863C46.08,52.481,45.64,52.276,45.076,52.276z"/>
<path fill="#FFFFFF" d="M51.806,51.229h1.269l-0.221,1.873h0.081c0.389-0.604,0.843-1.107,1.36-1.511s1.078-0.604,1.683-0.604
	c0.335,0,0.645,0.061,0.926,0.182l-0.543,1.369c-0.215-0.107-0.497-0.16-0.846-0.16c-0.484,0-0.981,0.208-1.491,0.624
	c-0.511,0.417-0.974,1.028-1.39,1.833l-1.229,6.187h-1.531L51.806,51.229z"/>
<path fill="#FFFFFF" d="M60.227,61.263c-1.061,0-1.906-0.349-2.538-1.047c-0.632-0.699-0.947-1.659-0.947-2.882
	c0-0.927,0.148-1.78,0.443-2.559c0.296-0.779,0.692-1.447,1.188-2.005c0.497-0.558,1.062-0.994,1.693-1.311
	c0.631-0.314,1.282-0.473,1.954-0.473c1.062,0,1.911,0.35,2.549,1.047c0.638,0.699,0.957,1.66,0.957,2.882
	c0,0.927-0.151,1.78-0.453,2.56s-0.698,1.447-1.188,2.004c-0.49,0.559-1.055,0.994-1.693,1.311
	C61.554,61.105,60.899,61.263,60.227,61.263z M61.86,52.257c-0.443,0-0.88,0.131-1.31,0.393c-0.431,0.262-0.813,0.618-1.149,1.068
	c-0.336,0.449-0.604,0.977-0.805,1.582c-0.202,0.604-0.303,1.248-0.303,1.934c0,0.887,0.178,1.564,0.533,2.035
	c0.356,0.471,0.877,0.705,1.563,0.705c0.456,0,0.896-0.131,1.319-0.393s0.803-0.615,1.139-1.059
	c0.335-0.443,0.604-0.967,0.806-1.571s0.303-1.249,0.303-1.935c0-0.887-0.178-1.568-0.534-2.045S62.545,52.257,61.86,52.257z"/>
<path fill="#FFFFFF" d="M67.3,51.229h1.531l0.726,5.662c0.053,0.47,0.101,0.957,0.141,1.46c0.041,0.504,0.088,0.991,0.141,1.461
	h0.081c0.229-0.483,0.464-0.97,0.706-1.461c0.241-0.49,0.489-0.978,0.744-1.46l2.882-5.662h1.552l-5.219,9.792h-1.854L67.3,51.229z"
	/>
<path fill="#FFFFFF" d="M75.823,57.173c0-0.927,0.154-1.77,0.464-2.529c0.309-0.758,0.708-1.41,1.198-1.953
	c0.49-0.545,1.049-0.965,1.673-1.26c0.625-0.295,1.259-0.443,1.904-0.443c0.551,0,1.018,0.09,1.4,0.271s0.695,0.431,0.937,0.746
	c0.242,0.315,0.416,0.691,0.524,1.128c0.107,0.437,0.161,0.903,0.161,1.4c0,0.39-0.041,0.759-0.121,1.108s-0.154,0.618-0.222,0.807
	h-6.367c-0.094,0.631-0.087,1.172,0.021,1.621c0.107,0.451,0.285,0.823,0.533,1.119c0.249,0.295,0.555,0.51,0.918,0.645
	c0.361,0.135,0.758,0.201,1.188,0.201c0.391,0,0.776-0.084,1.159-0.252s0.729-0.365,1.038-0.594l0.604,1.027
	c-0.389,0.281-0.853,0.527-1.39,0.735c-0.538,0.208-1.128,0.312-1.772,0.312c-1.17,0-2.104-0.352-2.801-1.057
	C76.172,59.5,75.823,58.489,75.823,57.173z M82.674,55.399c0.026-0.16,0.05-0.322,0.07-0.483c0.02-0.161,0.03-0.335,0.03-0.523
	c0-0.282-0.034-0.554-0.101-0.816c-0.068-0.262-0.176-0.493-0.322-0.694c-0.148-0.202-0.344-0.363-0.585-0.484
	s-0.537-0.182-0.886-0.182c-0.363,0-0.716,0.074-1.059,0.223c-0.342,0.147-0.662,0.362-0.957,0.645
	c-0.295,0.281-0.561,0.617-0.796,1.008c-0.235,0.389-0.413,0.825-0.534,1.309H82.674z"/>
<path fill="#FFFFFF" d="M85.514,57.173c0-0.927,0.154-1.77,0.464-2.529c0.309-0.758,0.708-1.41,1.199-1.953
	c0.49-0.545,1.048-0.965,1.672-1.26c0.625-0.295,1.26-0.443,1.904-0.443c0.551,0,1.018,0.09,1.4,0.271s0.695,0.431,0.937,0.746
	c0.242,0.315,0.417,0.691,0.524,1.128s0.161,0.903,0.161,1.4c0,0.39-0.04,0.759-0.121,1.108c-0.08,0.35-0.154,0.618-0.222,0.807
	h-6.367c-0.094,0.631-0.087,1.172,0.021,1.621c0.107,0.451,0.285,0.823,0.534,1.119c0.248,0.295,0.554,0.51,0.916,0.645
	c0.363,0.135,0.759,0.201,1.189,0.201c0.389,0,0.775-0.084,1.158-0.252s0.729-0.365,1.038-0.594l0.604,1.027
	c-0.39,0.281-0.854,0.527-1.391,0.735s-1.128,0.312-1.773,0.312c-1.168,0-2.103-0.352-2.8-1.057
	C85.864,59.5,85.514,58.489,85.514,57.173z M92.366,55.399c0.026-0.16,0.05-0.322,0.07-0.483c0.02-0.161,0.03-0.335,0.03-0.523
	c0-0.282-0.034-0.554-0.101-0.816c-0.067-0.262-0.175-0.493-0.323-0.694c-0.147-0.202-0.342-0.363-0.584-0.484
	c-0.241-0.121-0.537-0.182-0.887-0.182c-0.362,0-0.715,0.074-1.058,0.223c-0.343,0.147-0.662,0.362-0.957,0.645
	c-0.296,0.281-0.562,0.617-0.796,1.008c-0.235,0.389-0.413,0.825-0.534,1.309H92.366z"/>
<path fill="#FFFFFF" d="M103.246,50.503l0.766-3.828h1.552l-2.901,14.347h-1.27l0.161-1.45h-0.081
	c-0.47,0.51-1.001,0.92-1.592,1.229s-1.195,0.463-1.813,0.463c-0.859,0-1.545-0.302-2.055-0.906
	c-0.511-0.604-0.766-1.484-0.766-2.64c0-0.94,0.147-1.819,0.443-2.64c0.295-0.818,0.691-1.531,1.188-2.136s1.061-1.081,1.692-1.431
	c0.631-0.349,1.29-0.523,1.975-0.523c0.524,0,0.98,0.131,1.37,0.393s0.705,0.607,0.947,1.038h0.061L103.246,50.503z M98.631,59.974
	c0.511,0,1.027-0.15,1.552-0.453c0.523-0.303,1.034-0.775,1.531-1.421l0.887-4.372c-0.282-0.51-0.592-0.88-0.927-1.108
	c-0.336-0.228-0.692-0.343-1.068-0.343c-0.483,0-0.954,0.145-1.41,0.434c-0.457,0.289-0.86,0.675-1.209,1.158
	c-0.35,0.484-0.628,1.038-0.837,1.662c-0.208,0.625-0.312,1.273-0.312,1.945c0,0.846,0.161,1.475,0.483,1.884
	S98.081,59.974,98.631,59.974z"/>
<path fill="#FFFFFF" d="M109.512,61.263c-1.062,0-1.907-0.349-2.539-1.047c-0.631-0.699-0.946-1.659-0.946-2.882
	c0-0.927,0.147-1.78,0.443-2.559c0.295-0.779,0.691-1.447,1.188-2.005s1.061-0.994,1.692-1.311c0.631-0.314,1.283-0.473,1.954-0.473
	c1.062,0,1.911,0.35,2.55,1.047c0.638,0.699,0.957,1.66,0.957,2.882c0,0.927-0.151,1.78-0.454,2.56
	c-0.302,0.779-0.698,1.447-1.188,2.004c-0.49,0.559-1.055,0.994-1.692,1.311C110.838,61.105,110.184,61.263,109.512,61.263z
	 M111.144,52.257c-0.442,0-0.88,0.131-1.31,0.393s-0.813,0.618-1.148,1.068c-0.336,0.449-0.604,0.977-0.806,1.582
	c-0.201,0.604-0.303,1.248-0.303,1.934c0,0.887,0.179,1.564,0.534,2.035s0.877,0.705,1.562,0.705c0.457,0,0.896-0.131,1.32-0.393
	c0.423-0.262,0.802-0.615,1.138-1.059s0.604-0.967,0.807-1.571c0.201-0.604,0.302-1.249,0.302-1.935
	c0-0.887-0.178-1.568-0.534-2.045C112.35,52.495,111.83,52.257,111.144,52.257z"/>
<path fill="#FFFFFF" d="M118.176,51.229h1.27l-0.222,1.873h0.081c0.39-0.604,0.843-1.107,1.36-1.511
	c0.517-0.403,1.077-0.604,1.682-0.604c0.336,0,0.646,0.061,0.927,0.182l-0.544,1.369c-0.215-0.107-0.497-0.16-0.846-0.16
	c-0.483,0-0.98,0.208-1.491,0.624c-0.511,0.417-0.974,1.028-1.391,1.833l-1.229,6.187h-1.531L118.176,51.229z"/>
<path fill="#FFFFFF" d="M123.072,57.173c0-0.927,0.154-1.77,0.464-2.529c0.309-0.758,0.708-1.41,1.199-1.953
	c0.49-0.545,1.048-0.965,1.672-1.26c0.625-0.295,1.26-0.443,1.904-0.443c0.551,0,1.018,0.09,1.4,0.271s0.695,0.431,0.937,0.746
	c0.242,0.315,0.417,0.691,0.524,1.128s0.161,0.903,0.161,1.4c0,0.39-0.04,0.759-0.121,1.108c-0.08,0.35-0.154,0.618-0.222,0.807
	h-6.367c-0.094,0.631-0.087,1.172,0.021,1.621c0.107,0.451,0.285,0.823,0.534,1.119c0.248,0.295,0.554,0.51,0.916,0.645
	c0.363,0.135,0.759,0.201,1.189,0.201c0.389,0,0.775-0.084,1.158-0.252s0.729-0.365,1.038-0.594l0.604,1.027
	c-0.39,0.281-0.854,0.527-1.391,0.735s-1.128,0.312-1.773,0.312c-1.168,0-2.103-0.352-2.801-1.057
	C123.421,59.5,123.072,58.489,123.072,57.173z M129.923,55.399c0.026-0.16,0.05-0.322,0.07-0.483c0.02-0.161,0.03-0.335,0.03-0.523
	c0-0.282-0.034-0.554-0.101-0.816c-0.067-0.262-0.175-0.493-0.323-0.694c-0.147-0.202-0.342-0.363-0.584-0.484
	c-0.241-0.121-0.537-0.182-0.887-0.182c-0.362,0-0.715,0.074-1.058,0.223c-0.343,0.147-0.662,0.362-0.957,0.645
	c-0.296,0.281-0.562,0.617-0.796,1.008c-0.235,0.389-0.413,0.825-0.534,1.309H129.923z"/>
<path fill="#FFFFFF" d="M132.905,58.644c0.309,0.43,0.678,0.775,1.108,1.038c0.43,0.262,0.899,0.394,1.41,0.394
	c0.282,0,0.547-0.044,0.796-0.132c0.248-0.087,0.47-0.204,0.665-0.353c0.194-0.147,0.346-0.318,0.453-0.514s0.161-0.406,0.161-0.635
	c0-0.174-0.03-0.336-0.091-0.483s-0.158-0.292-0.292-0.434c-0.135-0.141-0.319-0.285-0.554-0.433
	c-0.235-0.148-0.521-0.316-0.856-0.504c-0.766-0.416-1.33-0.826-1.692-1.229c-0.363-0.403-0.544-0.886-0.544-1.45
	c0-0.43,0.09-0.826,0.271-1.189c0.182-0.362,0.423-0.672,0.726-0.927c0.302-0.255,0.658-0.453,1.067-0.595
	c0.41-0.141,0.843-0.211,1.3-0.211c0.604,0,1.146,0.121,1.622,0.362c0.477,0.242,0.896,0.558,1.26,0.947l-0.887,0.866
	c-0.269-0.269-0.564-0.496-0.887-0.686c-0.322-0.188-0.705-0.281-1.148-0.281c-0.523,0-0.964,0.15-1.319,0.453
	c-0.356,0.303-0.534,0.662-0.534,1.078c0,0.201,0.047,0.383,0.141,0.544s0.222,0.31,0.383,0.443s0.346,0.262,0.555,0.383
	c0.208,0.12,0.426,0.241,0.654,0.362c0.443,0.242,0.81,0.474,1.099,0.695c0.288,0.222,0.523,0.443,0.705,0.665
	s0.309,0.446,0.383,0.675c0.073,0.229,0.11,0.477,0.11,0.746c0,0.457-0.091,0.873-0.271,1.249c-0.182,0.376-0.437,0.694-0.766,0.957
	c-0.329,0.262-0.719,0.464-1.169,0.604s-0.937,0.211-1.461,0.211c-0.322,0-0.648-0.047-0.978-0.141s-0.645-0.225-0.946-0.393
	c-0.303-0.168-0.578-0.366-0.826-0.595c-0.249-0.228-0.453-0.47-0.615-0.726L132.905,58.644z"/>
<polygon fill="#FFFFFF" points="62.477,28.494 58.084,22.397 55.533,22.397 61.395,30.749 61.395,37.829 63.557,37.829 
	63.557,30.75 69.487,22.397 66.911,22.397 "/>
<path fill="#FFFFFF" d="M73.807,24.518h4.005c1.755,0,2.381,1.417,2.381,2.743c0,0.634-0.18,2.702-2.487,2.702h-3.898V24.518z
	 M77.812,22.397h-6.146v15.432h2.141v-5.748h4.005c3.317,0,4.5-2.49,4.5-4.821C82.312,24.909,81.129,22.397,77.812,22.397"/>
<path fill="#FFFFFF" d="M92.101,35.923c-3.156,0-5.628-2.537-5.628-5.777c0-3.252,2.472-5.799,5.628-5.799
	c3.168,0,5.649,2.547,5.649,5.799C97.75,33.386,95.269,35.923,92.101,35.923 M92.101,22.226c-4.345,0-7.749,3.479-7.749,7.919
	c0,4.429,3.404,7.896,7.749,7.896c4.356,0,7.769-3.468,7.769-7.896C99.87,25.705,96.458,22.226,92.101,22.226"/>
<path fill="#FFFFFF" d="M104.876,24.518h4.005c1.755,0,2.381,1.417,2.381,2.743c0,0.634-0.181,2.702-2.488,2.702h-3.897V24.518z
	 M108.881,22.397h-6.146v15.432h2.141v-5.748h4.005c3.317,0,4.5-2.49,4.5-4.821C113.381,24.909,112.199,22.397,108.881,22.397"/>
<rect x="137.45" y="22.397" fill="#FFFFFF" width="2.119" height="15.432"/>
<polygon fill="#FFFFFF" points="154.273,33.872 146.23,22.397 144.173,22.397 144.173,37.829 146.292,37.829 146.292,26.269 
	154.355,37.766 154.4,37.829 156.392,37.829 156.392,22.397 154.273,22.397 "/>
<polygon fill="#FFFFFF" points="162.36,35.71 162.36,31.312 168.907,31.312 168.907,29.192 162.36,29.192 162.36,24.517 
	169.783,24.517 169.783,22.396 160.241,22.396 160.241,37.829 170.018,37.829 170.018,35.71 "/>
<path fill="#FFFFFF" d="M129.172,32.913l-3.692-10.536h-1.322l-3.693,10.536l-2.61-10.548h-2.124l3.665,15.455h1.658l0.081-0.239
	c0.952-2.785,2.901-8.485,3.685-10.777l3.766,11.017h1.658l3.665-15.455h-2.124L129.172,32.913z"/>
<path fill="#FFFFFF" d="M50.599,22.383l-4.035,11.33l-4.033-11.33h-1.674l-2.673,15.449h2.115l1.799-10.415l3.721,10.415h1.494
	l0.036-0.101c0.178-0.515,1.729-4.849,2.861-8.013l0.823-2.303l1.808,10.416h2.109l-2.675-15.449H50.599z"/>
<path fill="#FFFFFF" d="M21.982,50.702c0.059-0.349-0.061-0.704-0.319-0.945l-9.793-9.171c-0.306-0.286-0.754-0.364-1.14-0.198
	c-0.386,0.168-0.635,0.548-0.635,0.969v11.784H3.696c-0.861,0-1.587-0.546-1.587-1.194V21.497c0-2.177,1.353-3.435,2.547-4.545
	c0.669-0.622,1.247-1.159,1.563-1.823c0.067-0.141,0.102-0.296,0.102-0.452V2.438c0-0.131,0.227-0.328,0.57-0.328h2.738
	c0.343,0,0.57,0.197,0.57,0.328V14.73c0,0.135,0.026,0.268,0.076,0.393c0.181,0.451,0.585,0.839,1.197,1.427
	c1.171,1.124,2.939,2.823,2.939,4.947v16.174h2.109V21.497c0-3.022-2.245-5.18-3.587-6.468c-0.218-0.21-0.477-0.458-0.625-0.621
	V2.438C12.308,1.093,11.106,0,9.629,0H6.891c-1.477,0-2.68,1.093-2.68,2.438v11.954c-0.206,0.287-0.604,0.657-0.991,1.016
	C1.938,16.6,0,18.401,0,21.497v30.449c0,1.821,1.658,3.303,3.696,3.303h7.515c0.546-0.005,0.987-0.445,0.993-0.992V43.788
	l6.856,6.421l-2.743,1.22c-0.271,0.119-0.48,0.35-0.573,0.632c-0.093,0.282-0.063,0.591,0.083,0.85l3.678,6.98l1.837-1.036
	l-3.108-5.971l3.137-1.394C21.694,51.347,21.923,51.052,21.982,50.702"/>
</svg>
