<?xml version="1.0" encoding="utf-8"?>
<!-- Generator: Adobe Illustrator 15.0.0, SVG Export Plug-In  -->
<!DOCTYPE svg PUBLIC "-//W3C//DTD SVG 1.1//EN" "http://www.w3.org/Graphics/SVG/1.1/DTD/svg11.dtd" [
	<!ENTITY ns_flows "http://ns.adobe.com/Flows/1.0/">
]>
<svg version="1.1"
	 xmlns="http://www.w3.org/2000/svg" xmlns:xlink="http://www.w3.org/1999/xlink" xmlns:a="http://ns.adobe.com/AdobeSVGViewerExtensions/3.0/"
	 x="0px" y="0px" width="16px" height="16px" viewBox="-2.033 -2.756 16 16" enable-background="new -2.033 -2.756 16 16"
	 xml:space="preserve">
<defs>
</defs>
<path fill="#FF9233" d="M5.967,7.036c-0.305,0-0.551-0.247-0.551-0.552V3.612c0-0.305,0.246-0.551,0.551-0.551
	s0.551,0.246,0.551,0.551v2.872C6.518,6.789,6.272,7.036,5.967,7.036"/>
<path fill="#FF9233" d="M5.967,8.812c-0.143,0-0.287-0.066-0.386-0.166c-0.11-0.11-0.166-0.242-0.166-0.387
	c0-0.153,0.056-0.297,0.166-0.396c0.209-0.209,0.563-0.198,0.772,0c0.109,0.111,0.165,0.254,0.165,0.396
	c0,0.133-0.056,0.276-0.154,0.375C6.254,8.745,6.111,8.812,5.967,8.812"/>
<path fill="#FF9233" d="M1.313,9.386h9.309L5.968,1.31L1.313,9.386z M11.503,10.488H0.43l-0.162-0.162
	C-0.068,9.988-0.088,9.451,0.209,9.09l5.108-8.821C5.491,0.096,5.722,0,5.968,0S6.446,0.096,6.62,0.269l0.087,0.115l5.017,8.706
	c0.299,0.361,0.279,0.899-0.06,1.236L11.503,10.488z"/>
</svg>
