<?xml version="1.0" encoding="utf-8"?>
<!-- Generator: Adobe Illustrator 15.0.0, SVG Export Plug-In  -->
<!DOCTYPE svg PUBLIC "-//W3C//DTD SVG 1.1//EN" "http://www.w3.org/Graphics/SVG/1.1/DTD/svg11.dtd" [
	<!ENTITY ns_flows "http://ns.adobe.com/Flows/1.0/">
]>
<svg version="1.1"
	 xmlns="http://www.w3.org/2000/svg" xmlns:xlink="http://www.w3.org/1999/xlink" xmlns:a="http://ns.adobe.com/AdobeSVGViewerExtensions/3.0/"
	 x="0px" y="0px" width="16px" height="16px" viewBox="-1.594 -0.699 16 16" enable-background="new -1.594 -0.699 16 16"
	 xml:space="preserve">
<defs>
</defs>
<path fill="#6D6E71" d="M9.361,14.602h-5.91c-1.308,0-2.372-1.193-2.372-2.66V4.539h1.5v7.403c0,0.629,0.399,1.16,0.872,1.16h5.91
	c0.473,0,0.873-0.531,0.873-1.16V4.539h1.5v7.403C11.734,13.409,10.67,14.602,9.361,14.602"/>
<path fill="#6D6E71" d="M6.406,11.081c-0.276,0-0.5-0.223-0.5-0.5V5.956c0-0.275,0.224-0.5,0.5-0.5s0.5,0.225,0.5,0.5v4.625
	C6.906,10.858,6.683,11.081,6.406,11.081"/>
<path fill="#6D6E71" d="M6.406,11.081c-0.276,0-0.5-0.223-0.5-0.5V5.956c0-0.275,0.224-0.5,0.5-0.5s0.5,0.225,0.5,0.5v4.625
	C6.906,10.858,6.683,11.081,6.406,11.081"/>
<path fill="#6D6E71" d="M4.248,1.711c-0.132,0-0.239-0.107-0.239-0.239c0-0.405,0.166-0.774,0.433-1.04C4.707,0.165,5.076,0,5.48,0
	h1.852c0.404,0,0.773,0.166,1.039,0.432c0.268,0.266,0.434,0.637,0.434,1.04c0,0.132-0.107,0.239-0.24,0.239H4.248z"/>
<path fill="#6D6E71" d="M0.855,1.481h11.102c0.234,0,0.449,0.096,0.604,0.251l0.002,0.001c0.154,0.155,0.25,0.37,0.25,0.603v0.618
	c0,0.131-0.105,0.238-0.238,0.238h-0.006H0.238C0.106,3.192,0,3.085,0,2.954V2.947V2.336c0-0.232,0.096-0.447,0.251-0.603
	l0.002-0.001C0.407,1.577,0.621,1.481,0.855,1.481"/>
</svg>
