<?xml version="1.0" encoding="utf-8"?>
<!-- Generator: Adobe Illustrator 15.0.0, SVG Export Plug-In  -->
<!DOCTYPE svg PUBLIC "-//W3C//DTD SVG 1.1//EN" "http://www.w3.org/Graphics/SVG/1.1/DTD/svg11.dtd" [
	<!ENTITY ns_flows "http://ns.adobe.com/Flows/1.0/">
]>
<svg version="1.1"
	 xmlns="http://www.w3.org/2000/svg" xmlns:xlink="http://www.w3.org/1999/xlink" xmlns:a="http://ns.adobe.com/AdobeSVGViewerExtensions/3.0/"
	 x="0px" y="0px" width="24px" height="24px" viewBox="-4.32 -4.32 24 24" enable-background="new -4.32 -4.32 24 24"
	 xml:space="preserve">
<defs>
</defs>
<path fill="#FFFFFF" d="M5.354,7.8C3.782,8.299,2.43,9.29,1.478,10.592C0.549,11.862,0,13.428,0,15.12
	c0,0.133,0.107,0.24,0.241,0.24c0.132,0,0.239-0.107,0.239-0.24c0-1.588,0.514-3.057,1.384-4.244
	c0.893-1.223,2.161-2.152,3.635-2.62c0.126-0.04,0.195-0.174,0.156-0.3S5.48,7.76,5.354,7.8 M13.632,15.36h1.482h0.007
	c0.131,0,0.238-0.107,0.238-0.24v-0.008c-0.001-1.689-0.549-3.252-1.477-4.52C12.931,9.29,11.578,8.299,10.007,7.8
	C9.881,7.76,9.746,7.83,9.706,7.956c-0.039,0.126,0.029,0.26,0.155,0.3c1.474,0.467,2.742,1.397,3.636,2.62
	c0.826,1.129,1.33,2.508,1.379,4.004h-1.244c-0.132,0-0.24,0.107-0.24,0.24S13.5,15.36,13.632,15.36 M4.186,15.36
	c-0.132,0-0.24-0.107-0.24-0.24s0.108-0.24,0.24-0.24h8.256c0.134,0,0.24,0.107,0.24,0.24s-0.106,0.24-0.24,0.24H4.186z
	 M1.431,15.36c-0.132,0-0.24-0.107-0.24-0.24s0.108-0.24,0.24-0.24h1.488c0.133,0,0.24,0.107,0.24,0.24s-0.107,0.24-0.24,0.24H1.431
	z"/>
<path fill="#FFFFFF" d="M10.141,1.499C9.513,0.87,8.642,0.48,7.681,0.48S5.849,0.87,5.22,1.499c-0.63,0.629-1.019,1.5-1.019,2.461
	S4.59,5.791,5.22,6.42c0.63,0.63,1.5,1.019,2.461,1.019s1.832-0.389,2.46-1.018l0.002-0.001c0.628-0.628,1.017-1.499,1.017-2.46
	S10.771,2.129,10.141,1.499 M7.681,0c1.094,0,2.084,0.443,2.8,1.16c0.716,0.716,1.16,1.706,1.16,2.8c0,1.092-0.443,2.082-1.16,2.799
	h-0.001V6.76h-0.001C9.763,7.477,8.772,7.92,7.681,7.92c-1.094,0-2.084-0.444-2.801-1.16c-0.717-0.717-1.16-1.707-1.16-2.8
	c0-1.093,0.444-2.083,1.16-2.799L4.881,1.16C5.598,0.444,6.587,0,7.681,0"/>
<path fill="#FFFFFF" d="M11.871,13.475c-0.052-0.121,0.006-0.262,0.127-0.313c0.122-0.051,0.262,0.006,0.313,0.127
	c0.121,0.285,0.214,0.584,0.277,0.895c0.062,0.307,0.094,0.619,0.094,0.936c0,0.133-0.106,0.24-0.24,0.24
	c-0.133,0-0.239-0.107-0.239-0.24c0-0.291-0.029-0.572-0.084-0.842C12.063,14,11.979,13.729,11.871,13.475"/>
<path fill="#FFFFFF" d="M3.159,15.12c0,0.133-0.107,0.24-0.24,0.24s-0.24-0.107-0.24-0.24c0-0.316,0.032-0.631,0.094-0.936
	c0.063-0.309,0.156-0.609,0.277-0.895c0.051-0.121,0.191-0.18,0.313-0.127c0.121,0.051,0.179,0.191,0.127,0.313
	C3.382,13.731,3.298,14,3.241,14.278C3.188,14.547,3.159,14.827,3.159,15.12"/>
<path fill="#FFFFFF" d="M5.311,8.237c-0.115-0.064-0.157-0.21-0.093-0.325c0.063-0.116,0.21-0.157,0.325-0.093
	c0.321,0.179,0.668,0.318,1.031,0.413h0.001C6.926,8.321,7.297,8.37,7.681,8.37s0.755-0.049,1.105-0.139l0.01-0.004
	c0.359-0.093,0.703-0.231,1.021-0.409c0.116-0.064,0.262-0.023,0.325,0.093c0.064,0.115,0.023,0.261-0.092,0.325
	C9.696,8.433,9.315,8.587,8.915,8.69l-0.01,0.004C8.513,8.795,8.102,8.85,7.681,8.85S6.849,8.795,6.456,8.694
	C6.051,8.589,5.667,8.435,5.311,8.237"/>
</svg>
