<?xml version="1.0" encoding="utf-8"?>
<!-- Generator: Adobe Illustrator 15.0.0, SVG Export Plug-In  -->
<!DOCTYPE svg PUBLIC "-//W3C//DTD SVG 1.1//EN" "http://www.w3.org/Graphics/SVG/1.1/DTD/svg11.dtd" [
	<!ENTITY ns_flows "http://ns.adobe.com/Flows/1.0/">
]>
<svg version="1.1"
	 xmlns="http://www.w3.org/2000/svg" xmlns:xlink="http://www.w3.org/1999/xlink" xmlns:a="http://ns.adobe.com/AdobeSVGViewerExtensions/3.0/"
	 x="0px" y="0px" width="16px" height="16px" viewBox="-3.432 -3.432 16 16" enable-background="new -3.432 -3.432 16 16"
	 xml:space="preserve">
<defs>
</defs>
<path fill="#939598" d="M0.855,9.137c-0.22,0-0.438-0.083-0.604-0.25c-0.334-0.334-0.334-0.874,0-1.208l7.427-7.428
	c0.334-0.334,0.875-0.334,1.209,0s0.334,0.873,0,1.207L1.458,8.887C1.292,9.054,1.074,9.137,0.855,9.137"/>
<path fill="#939598" d="M8.283,9.137c-0.221,0-0.438-0.083-0.605-0.25L0.25,1.458c-0.334-0.334-0.334-0.874,0-1.208
	c0.334-0.333,0.874-0.333,1.208,0l7.428,7.429c0.334,0.333,0.334,0.874,0,1.208C8.719,9.054,8.502,9.137,8.283,9.137"/>
</svg>
