<?xml version="1.0" encoding="utf-8"?>
<!-- Generator: Adobe Illustrator 15.0.0, SVG Export Plug-In  -->
<!DOCTYPE svg PUBLIC "-//W3C//DTD SVG 1.1//EN" "http://www.w3.org/Graphics/SVG/1.1/DTD/svg11.dtd" [
	<!ENTITY ns_flows "http://ns.adobe.com/Flows/1.0/">
]>
<svg version="1.1"
	 xmlns="http://www.w3.org/2000/svg" xmlns:xlink="http://www.w3.org/1999/xlink" xmlns:a="http://ns.adobe.com/AdobeSVGViewerExtensions/3.0/"
	 x="0px" y="0px" width="32px" height="32px" viewBox="-3.258 -5.262 32 32" enable-background="new -3.258 -5.262 32 32"
	 xml:space="preserve">
<defs>
</defs>
<path fill="#FF9233" d="M14.061,8.749c-0.22,0-0.398-0.179-0.398-0.398c0-0.219,0.179-0.396,0.398-0.396h9.434
	c0.265,0,0.521,0.054,0.757,0.152c0.242,0.101,0.462,0.249,0.645,0.431c0.184,0.183,0.334,0.404,0.436,0.647
	c0.098,0.233,0.153,0.49,0.153,0.758c0,0.261-0.053,0.519-0.152,0.759c-0.101,0.24-0.246,0.461-0.432,0.646
	c-0.182,0.181-0.402,0.328-0.646,0.431c-0.237,0.098-0.495,0.153-0.76,0.153h-5.789c-0.219,0-0.399-0.18-0.399-0.398
	s0.181-0.396,0.399-0.396h5.789c0.162,0,0.315-0.033,0.455-0.091c0.144-0.061,0.276-0.149,0.388-0.261
	c0.114-0.114,0.202-0.246,0.261-0.387c0.059-0.143,0.09-0.297,0.09-0.455c0-0.162-0.032-0.316-0.091-0.454
	c-0.061-0.146-0.151-0.279-0.261-0.388c-0.111-0.111-0.244-0.201-0.391-0.262c-0.138-0.058-0.29-0.09-0.451-0.09H14.061z"/>
<path fill="#FF9233" d="M14.385,0.208c0.104-0.192,0.346-0.264,0.538-0.159c0.193,0.104,0.263,0.346,0.16,0.538l-3.562,6.512
	c-0.105,0.192-0.346,0.264-0.539,0.158c-0.191-0.104-0.263-0.345-0.158-0.537L14.385,0.208z"/>
<path fill="#FF9233" d="M10.855,6.668c0.135-0.174,0.384-0.207,0.558-0.074c0.174,0.132,0.208,0.382,0.074,0.556
	c-0.603,0.79-1.142,1.19-1.724,1.396C9.188,8.75,8.617,8.75,7.907,8.75c-0.221,0-0.398-0.178-0.398-0.397
	c0-0.221,0.178-0.397,0.398-0.397c0.637,0,1.148-0.001,1.593-0.157C9.937,7.644,10.359,7.319,10.855,6.668"/>
<path fill="#FF9233" d="M14.733,0.795c-0.22,0-0.398-0.178-0.398-0.397S14.514,0,14.733,0c0.149,0,0.31,0.019,0.473,0.053
	l0.021,0.005c0.393,0.09,0.808,0.287,1.127,0.588c0.344,0.322,0.582,0.763,0.583,1.317h0.001c0,0.14-0.017,0.287-0.05,0.44
	c-0.045,0.214-0.259,0.35-0.473,0.304c-0.215-0.046-0.351-0.258-0.305-0.473c0.02-0.095,0.03-0.186,0.03-0.271h0.003
	c0-0.305-0.138-0.555-0.334-0.739c-0.212-0.201-0.494-0.332-0.766-0.392l-0.01-0.002C14.93,0.808,14.827,0.795,14.733,0.795"/>
<path fill="#FF9233" d="M16.117,2.209c0.06-0.21,0.279-0.333,0.491-0.272c0.212,0.059,0.334,0.279,0.273,0.49l-1.071,3.752
	c-0.061,0.211-0.28,0.332-0.491,0.273c-0.211-0.06-0.334-0.279-0.274-0.49L16.117,2.209z"/>
<path fill="#FF9233" d="M5.972,21.477H0.408H0.396C0.178,21.477,0,21.298,0,21.079V7.567v-0.01c0-0.221,0.178-0.398,0.396-0.398
	h5.565h0.01c0.221,0,0.399,0.178,0.399,0.398v13.511v0.011C6.371,21.298,6.192,21.477,5.972,21.477 M0.796,20.681h3.558
	c0,0,1.221,0,1.221-1.219V7.954h-3.56c0,0-1.219,0-1.219,1.221V20.681z"/>
<path fill="#FF9233" d="M14.042,20.697c0.211,0.058,0.335,0.276,0.277,0.487s-0.277,0.334-0.488,0.275l-3.819-1.056h-2.1
	c-0.219,0-0.398-0.179-0.398-0.397c0-0.22,0.18-0.397,0.398-0.397H9.06h1c0,0,0,0.001,0.018,0.001c0.017,0,0.053,0.004,0.088,0.014
	L14.042,20.697z"/>
<path fill="#FF9233" d="M24.688,13.123c0-0.22,0.178-0.398,0.399-0.398c0.219,0,0.396,0.179,0.396,0.398
	c0,0.262-0.052,0.52-0.151,0.759c-0.101,0.24-0.246,0.46-0.432,0.646c-0.181,0.181-0.402,0.328-0.646,0.431
	c-0.237,0.097-0.494,0.151-0.76,0.151h-5.789c-0.22,0-0.398-0.178-0.398-0.396c0-0.22,0.179-0.398,0.398-0.398h5.789
	c0.161,0,0.315-0.032,0.455-0.09c0.144-0.06,0.276-0.15,0.388-0.261c0.114-0.114,0.202-0.246,0.261-0.387
	C24.655,13.437,24.688,13.282,24.688,13.123"/>
<path fill="#FF9233" d="M23.094,16.307c0-0.22,0.179-0.398,0.398-0.398c0.219,0,0.398,0.179,0.398,0.398
	c0,0.26-0.054,0.519-0.152,0.758l-0.001,0.001h0.001c-0.1,0.24-0.246,0.461-0.431,0.646l-0.027,0.022
	c-0.178,0.172-0.389,0.313-0.621,0.407c-0.235,0.098-0.494,0.152-0.759,0.152h-5.789c-0.22,0-0.398-0.179-0.398-0.396
	c0-0.22,0.179-0.398,0.398-0.398H21.9c0.162,0,0.316-0.032,0.454-0.09s0.265-0.14,0.371-0.242l0.018-0.019
	c0.113-0.114,0.203-0.247,0.261-0.387c0,0,0.002,0,0.029-0.07C23.062,16.622,23.094,16.467,23.094,16.307"/>
<path fill="#FF9233" d="M20.014,19.487c0-0.219,0.18-0.396,0.399-0.396c0.219,0,0.396,0.178,0.396,0.396
	c0,0.549-0.223,1.046-0.584,1.405L20.2,20.918c-0.358,0.344-0.846,0.559-1.38,0.559h-4.884c-0.22,0-0.398-0.179-0.398-0.397
	c0-0.221,0.179-0.399,0.398-0.399h4.884c0.32,0,0.611-0.126,0.824-0.331l0.019-0.019C19.879,20.114,20.014,19.815,20.014,19.487"/>
</svg>
