<?xml version="1.0" encoding="utf-8"?>
<!-- Generator: Adobe Illustrator 15.0.0, SVG Export Plug-In  -->
<!DOCTYPE svg PUBLIC "-//W3C//DTD SVG 1.1//EN" "http://www.w3.org/Graphics/SVG/1.1/DTD/svg11.dtd" [
	<!ENTITY ns_flows "http://ns.adobe.com/Flows/1.0/">
]>
<svg version="1.1"
	 xmlns="http://www.w3.org/2000/svg" xmlns:xlink="http://www.w3.org/1999/xlink" xmlns:a="http://ns.adobe.com/AdobeSVGViewerExtensions/3.0/"
	 x="0px" y="0px" width="24px" height="24px" viewBox="-3.797 -3.86 24 24" enable-background="new -3.797 -3.86 24 24"
	 xml:space="preserve">
<defs>
</defs>
<path fill="#FFFFFF" d="M13.55,10.919l0.092-0.092C13.604,10.848,13.573,10.879,13.55,10.919 M13.277,11.381l0.029-0.033
	C13.297,11.357,13.286,11.369,13.277,11.381 M5.904,13.68l0.129,0.326C6.085,13.88,6.027,13.735,5.904,13.68 M14.354,9.708
	c-0.141,0-0.256-0.114-0.256-0.254c0-0.141,0.115-0.255,0.256-0.255h1.135c0.109,0,0.212-0.045,0.285-0.118
	c0.073-0.074,0.12-0.175,0.12-0.285V7.482c0-0.11-0.046-0.212-0.119-0.284h-0.001C15.7,7.125,15.598,7.08,15.488,7.08h-1.135
	c-0.128,0-0.234-0.094-0.254-0.217c-0.076-0.351-0.184-0.691-0.318-1.015l-0.006-0.013c-0.139-0.329-0.308-0.645-0.501-0.943
	c-0.067-0.102-0.051-0.235,0.033-0.318h-0.001l0.802-0.796c0.078-0.078,0.118-0.181,0.118-0.285c0-0.103-0.04-0.206-0.118-0.284
	L13.173,2.28c-0.079-0.079-0.183-0.117-0.287-0.117s-0.209,0.038-0.288,0.115v0.001V2.28l-0.801,0.795
	c-0.092,0.091-0.236,0.098-0.336,0.023c-0.299-0.191-0.616-0.357-0.947-0.493h-0.001c-0.332-0.136-0.679-0.244-1.038-0.32
	C9.354,2.259,9.271,2.154,9.271,2.036V0.911c0-0.11-0.046-0.211-0.119-0.284V0.626C9.079,0.554,8.977,0.509,8.865,0.509H7.541
	c-0.112,0-0.213,0.045-0.286,0.117L7.254,0.627C7.181,0.7,7.135,0.801,7.135,0.911v1.125c0,0.128-0.094,0.233-0.218,0.251
	C6.562,2.364,6.22,2.471,5.894,2.604v0.001C5.556,2.744,5.232,2.913,4.93,3.107c-0.103,0.066-0.236,0.051-0.32-0.033L4.608,3.075
	L3.808,2.28L3.807,2.279C3.729,2.201,3.624,2.163,3.52,2.163c-0.103,0-0.208,0.038-0.286,0.116V2.28L2.297,3.209
	C2.219,3.287,2.179,3.39,2.179,3.493c0,0.104,0.04,0.207,0.118,0.285l0.014,0.014l0.788,0.783c0.087,0.086,0.097,0.219,0.033,0.317
	c-0.196,0.3-0.366,0.621-0.506,0.956C2.488,6.177,2.38,6.521,2.302,6.878C2.277,6.997,2.17,7.079,2.052,7.079V7.08H0.919
	c-0.112,0-0.213,0.045-0.287,0.117L0.631,7.198C0.558,7.271,0.513,7.372,0.513,7.482v1.313c0,0.11,0.046,0.211,0.12,0.285
	l0.011,0.011c0.071,0.066,0.168,0.107,0.275,0.107h1.133c0.128,0,0.235,0.094,0.254,0.217c0.076,0.352,0.185,0.691,0.32,1.016
	l0.005,0.013c0.138,0.329,0.307,0.645,0.501,0.944c0.067,0.101,0.05,0.233-0.033,0.316l-0.802,0.796
	c-0.078,0.078-0.118,0.181-0.118,0.285c0,0.103,0.04,0.207,0.118,0.285L3.233,14c0.078,0.078,0.184,0.117,0.286,0.117
	c0.105,0,0.209-0.039,0.288-0.116l0.801-0.795c0.089-0.088,0.226-0.099,0.324-0.033c0.302,0.194,0.624,0.363,0.961,0.501
	l0.011,0.006c0.326,0.133,0.671,0.238,1.027,0.314c0.12,0.025,0.202,0.131,0.202,0.249h0.001v1.124c0,0.111,0.046,0.212,0.118,0.285
	l0.001,0.001c0.074,0.071,0.175,0.116,0.287,0.116h1.324c0.11,0,0.213-0.045,0.287-0.118l0.012-0.011
	c0.065-0.07,0.107-0.168,0.107-0.273v-1.124c0-0.127,0.095-0.233,0.217-0.252c0.354-0.076,0.697-0.183,1.023-0.317
	c0.338-0.139,0.661-0.308,0.964-0.503c0.104-0.065,0.238-0.049,0.321,0.035l0.005,0.004l0.796,0.791V14
	c0.079,0.078,0.185,0.117,0.288,0.117c0.104,0,0.209-0.039,0.287-0.116V14l0.936-0.929l0.013-0.011
	c0.07-0.077,0.105-0.176,0.105-0.274c0-0.104-0.04-0.207-0.118-0.285l-0.199-0.198l-0.201-0.199l-0.2-0.198l-0.013-0.015
	l-0.188-0.186c-0.089-0.088-0.099-0.225-0.03-0.324l0.067-0.104l0.072-0.119l0.005-0.008l0.058-0.104l0.067-0.123l0.003-0.005
	l0.057-0.108l-0.001-0.002l0.063-0.125c0.061-0.127,0.214-0.18,0.341-0.118c0.128,0.061,0.181,0.213,0.12,0.339l-0.061,0.126h-0.002
	l-0.003,0.005l-0.059,0.114l-0.007,0.016l-0.067,0.123l-0.003,0.004l-0.066,0.115l-0.007,0.012l-0.042,0.07l0.043,0.042l0.016,0.014
	l0.199,0.198l0.201,0.199l0.2,0.198c0.179,0.178,0.269,0.412,0.269,0.646c0,0.224-0.083,0.45-0.25,0.625l-0.019,0.021l-0.936,0.929
	l-0.001-0.001l-0.001,0.001c-0.18,0.177-0.414,0.266-0.648,0.266c-0.235,0-0.472-0.089-0.649-0.266v-0.001v-0.001l-0.658-0.652
	c-0.277,0.166-0.568,0.313-0.87,0.437c-0.298,0.123-0.607,0.225-0.924,0.303v0.922c0,0.241-0.097,0.462-0.252,0.626l-0.018,0.019
	c-0.167,0.164-0.396,0.268-0.649,0.268H7.541c-0.252,0-0.482-0.104-0.648-0.268L6.892,16.01c-0.166-0.164-0.27-0.393-0.27-0.643
	v-0.922c-0.312-0.078-0.615-0.178-0.908-0.297l-0.016-0.006c-0.302-0.125-0.594-0.271-0.87-0.437L4.17,14.358L4.169,14.36
	c-0.179,0.177-0.414,0.266-0.649,0.266c-0.233,0-0.47-0.089-0.648-0.266l-0.937-0.929c-0.179-0.179-0.269-0.412-0.269-0.646
	s0.09-0.468,0.269-0.646l0.658-0.652c-0.164-0.271-0.31-0.555-0.434-0.85l-0.005-0.014c-0.125-0.295-0.227-0.602-0.306-0.917h-0.93
	c-0.243,0-0.466-0.095-0.63-0.251L0.27,9.441C0.104,9.276,0,9.047,0,8.796V7.482c0-0.25,0.104-0.478,0.27-0.644l0.001-0.001
	c0.166-0.164,0.396-0.267,0.648-0.267h0.93c0.079-0.315,0.181-0.622,0.306-0.918C2.277,5.354,2.426,5.065,2.593,4.79L1.949,4.151
	L1.935,4.137C1.756,3.961,1.666,3.726,1.666,3.493c0-0.233,0.09-0.467,0.269-0.644L2.871,1.92V1.919
	C3.05,1.742,3.286,1.653,3.52,1.653c0.236,0,0.472,0.089,0.65,0.266V1.92l0.658,0.652c0.277-0.166,0.568-0.313,0.87-0.436h0.001
	c0.298-0.122,0.606-0.224,0.923-0.302V0.911c0-0.249,0.104-0.477,0.27-0.642l0.001-0.001C7.06,0.103,7.29,0,7.541,0h1.324
	c0.252,0,0.481,0.103,0.647,0.268l0.002,0.001c0.166,0.165,0.27,0.393,0.27,0.642v0.923c0.317,0.078,0.627,0.18,0.925,0.302v0.001
	c0.302,0.124,0.593,0.27,0.869,0.435l0.658-0.652l0,0c0.18-0.178,0.416-0.267,0.649-0.267c0.235,0,0.47,0.089,0.65,0.267
	l0.936,0.929C14.65,3.026,14.74,3.26,14.74,3.493c0,0.233-0.09,0.468-0.269,0.644l-0.658,0.654c0.163,0.271,0.31,0.554,0.434,0.85
	l0.006,0.012c0.123,0.296,0.226,0.603,0.304,0.918h0.932c0.252,0,0.481,0.103,0.647,0.267v0.001
	c0.167,0.165,0.271,0.395,0.271,0.644v1.313c0,0.251-0.104,0.48-0.271,0.646c-0.166,0.164-0.396,0.267-0.647,0.267H14.354z"/>
<path fill="#FFFFFF" d="M10.129,6.229C9.636,5.74,8.955,5.437,8.203,5.437S6.77,5.74,6.277,6.229
	C5.785,6.717,5.479,7.393,5.479,8.14c0,0.746,0.307,1.42,0.799,1.91s1.174,0.792,1.926,0.792s1.433-0.303,1.926-0.792
	s0.798-1.165,0.798-1.91C10.927,7.393,10.622,6.717,10.129,6.229 M8.203,4.928c0.894,0,1.704,0.36,2.289,0.941
	c0.585,0.58,0.947,1.383,0.947,2.271c0,0.886-0.362,1.689-0.947,2.27s-1.396,0.941-2.289,0.941c-0.895,0-1.703-0.36-2.289-0.941
	C5.329,9.829,4.967,9.026,4.967,8.14c0-0.887,0.362-1.691,0.947-2.271C6.5,5.288,7.309,4.928,8.203,4.928"/>
</svg>
