<?xml version="1.0" encoding="utf-8"?>
<!-- Generator: Adobe Illustrator 15.0.0, SVG Export Plug-In  -->
<!DOCTYPE svg PUBLIC "-//W3C//DTD SVG 1.1//EN" "http://www.w3.org/Graphics/SVG/1.1/DTD/svg11.dtd" [
	<!ENTITY ns_flows "http://ns.adobe.com/Flows/1.0/">
]>
<svg version="1.1"
	 xmlns="http://www.w3.org/2000/svg" xmlns:xlink="http://www.w3.org/1999/xlink" xmlns:a="http://ns.adobe.com/AdobeSVGViewerExtensions/3.0/"
	 x="0px" y="0px" width="32px" height="32px" viewBox="-3.258 -5.262 32 32" enable-background="new -3.258 -5.262 32 32"
	 xml:space="preserve">
<defs>
</defs>
<path fill="#6D6E71" d="M14.061,12.728c-0.22,0-0.398,0.179-0.398,0.397c0,0.22,0.179,0.398,0.398,0.398h9.434
	c0.265,0,0.521-0.055,0.757-0.152c0.242-0.102,0.462-0.25,0.645-0.432c0.184-0.184,0.334-0.404,0.436-0.646
	c0.098-0.234,0.153-0.491,0.153-0.758c0-0.262-0.053-0.52-0.152-0.76c-0.101-0.24-0.246-0.461-0.432-0.645
	c-0.182-0.182-0.402-0.329-0.646-0.432c-0.237-0.098-0.495-0.152-0.76-0.152h-5.789c-0.219,0-0.399,0.179-0.399,0.398
	c0,0.219,0.181,0.396,0.399,0.396h5.789c0.162,0,0.315,0.031,0.455,0.09c0.144,0.061,0.276,0.15,0.388,0.262
	c0.114,0.113,0.202,0.246,0.261,0.387c0.059,0.142,0.09,0.295,0.09,0.455c0,0.162-0.032,0.315-0.091,0.453
	c-0.061,0.146-0.151,0.279-0.261,0.389c-0.111,0.111-0.244,0.201-0.391,0.261c-0.138,0.058-0.29,0.09-0.451,0.09H14.061z"/>
<path fill="#6D6E71" d="M14.385,21.27c0.104,0.191,0.346,0.262,0.538,0.158c0.193-0.105,0.263-0.346,0.16-0.537l-3.562-6.513
	c-0.105-0.192-0.346-0.263-0.539-0.157c-0.191,0.104-0.263,0.344-0.158,0.536L14.385,21.27z"/>
<path fill="#6D6E71" d="M10.855,14.809c0.135,0.174,0.384,0.207,0.558,0.074s0.208-0.383,0.074-0.555
	c-0.603-0.791-1.142-1.191-1.724-1.397c-0.576-0.204-1.146-0.204-1.856-0.204c-0.221,0-0.398,0.178-0.398,0.398
	c0,0.22,0.178,0.396,0.398,0.396c0.637,0,1.148,0.002,1.593,0.157C9.937,13.834,10.359,14.158,10.855,14.809"/>
<path fill="#6D6E71" d="M14.733,20.682c-0.22,0-0.398,0.178-0.398,0.398c0,0.219,0.179,0.396,0.398,0.396
	c0.149,0,0.31-0.018,0.473-0.053l0.021-0.006c0.393-0.09,0.808-0.286,1.127-0.588c0.344-0.321,0.582-0.762,0.583-1.316h0.001
	c0-0.141-0.017-0.287-0.05-0.439c-0.045-0.215-0.259-0.35-0.473-0.305c-0.215,0.047-0.351,0.258-0.305,0.473
	c0.02,0.094,0.03,0.186,0.03,0.271h0.003c0,0.305-0.138,0.555-0.334,0.74c-0.212,0.199-0.494,0.33-0.766,0.391l-0.01,0.002
	C14.93,20.67,14.827,20.682,14.733,20.682"/>
<path fill="#6D6E71" d="M16.117,19.268c0.06,0.21,0.279,0.332,0.491,0.273c0.212-0.06,0.334-0.281,0.273-0.49l-1.071-3.752
	c-0.061-0.211-0.28-0.334-0.491-0.274s-0.334,0.28-0.274,0.491L16.117,19.268z"/>
<path fill="#6D6E71" d="M5.972,0H0.408H0.396C0.178,0,0,0.178,0,0.397V13.91v0.01c0,0.22,0.178,0.398,0.396,0.398h5.565h0.01
	c0.221,0,0.399-0.179,0.399-0.398V0.408V0.397C6.371,0.178,6.192,0,5.972,0 M0.796,0.795h3.558c0,0,1.221,0,1.221,1.22v11.508h-3.56
	c0,0-1.219,0-1.219-1.22V0.795z"/>
<path fill="#6D6E71" d="M14.042,0.779c0.211-0.059,0.335-0.275,0.277-0.486s-0.277-0.334-0.488-0.277l-3.819,1.057h-2.1
	c-0.219,0-0.398,0.18-0.398,0.398s0.18,0.396,0.398,0.396H9.06h1c0,0,0,0,0.018,0c0.017,0,0.053-0.005,0.088-0.015L14.042,0.779z"/>
<path fill="#6D6E71" d="M24.688,8.354c0,0.219,0.178,0.398,0.399,0.398c0.219,0,0.396-0.18,0.396-0.398
	c0-0.262-0.052-0.52-0.151-0.758c-0.101-0.24-0.246-0.461-0.432-0.646c-0.181-0.182-0.402-0.33-0.646-0.432
	c-0.237-0.097-0.494-0.152-0.76-0.152h-5.789c-0.22,0-0.398,0.179-0.398,0.398c0,0.219,0.179,0.396,0.398,0.396h5.789
	c0.161,0,0.315,0.033,0.455,0.091c0.144,0.06,0.276,0.151,0.388,0.261c0.114,0.114,0.202,0.246,0.261,0.387
	C24.655,8.039,24.688,8.195,24.688,8.354"/>
<path fill="#6D6E71" d="M23.094,5.17c0,0.219,0.179,0.398,0.398,0.398c0.219,0,0.398-0.18,0.398-0.398
	c0-0.26-0.054-0.519-0.152-0.758h-0.001h0.001c-0.1-0.24-0.246-0.462-0.431-0.646L23.28,3.742c-0.178-0.172-0.389-0.313-0.621-0.406
	c-0.235-0.099-0.494-0.154-0.759-0.154h-5.789c-0.22,0-0.398,0.18-0.398,0.398s0.179,0.396,0.398,0.396H21.9
	c0.162,0,0.316,0.033,0.454,0.091s0.265,0.14,0.371,0.241l0.018,0.02c0.113,0.114,0.203,0.247,0.261,0.387c0,0,0.002,0,0.029,0.07
	C23.062,4.855,23.094,5.01,23.094,5.17"/>
<path fill="#6D6E71" d="M20.014,1.988c0,0.22,0.18,0.398,0.399,0.398c0.219,0,0.396-0.179,0.396-0.398
	c0-0.547-0.223-1.045-0.584-1.404L20.2,0.559C19.842,0.215,19.354,0,18.82,0h-4.884c-0.22,0-0.398,0.18-0.398,0.398
	s0.179,0.398,0.398,0.398h4.884c0.32,0,0.611,0.126,0.824,0.331l0.019,0.019C19.879,1.363,20.014,1.66,20.014,1.988"/>
</svg>
