<?xml version="1.0" encoding="utf-8"?>
<!-- Generator: Adobe Illustrator 15.0.0, SVG Export Plug-In  -->
<!DOCTYPE svg PUBLIC "-//W3C//DTD SVG 1.1//EN" "http://www.w3.org/Graphics/SVG/1.1/DTD/svg11.dtd" [
	<!ENTITY ns_flows "http://ns.adobe.com/Flows/1.0/">
]>
<svg version="1.1"
	 xmlns="http://www.w3.org/2000/svg" xmlns:xlink="http://www.w3.org/1999/xlink" xmlns:a="http://ns.adobe.com/AdobeSVGViewerExtensions/3.0/"
	 x="0px" y="0px" width="24px" height="24px" viewBox="-3.75 -6 24 24" enable-background="new -3.75 -6 24 24"
	 xml:space="preserve">
<defs>
</defs>
<path fill="#FFFFFF" d="M0.816,0.5C0.642,0.5,0.5,0.643,0.5,0.817v10.366c0,0.174,0.142,0.316,0.316,0.316h14.865
	c0.176,0,0.318-0.143,0.318-0.316V0.817C16,0.643,15.857,0.5,15.682,0.5H0.816z M15.682,12H0.816C0.367,12,0,11.633,0,11.184V0.817
	C0,0.367,0.367,0,0.816,0h14.865C16.133,0,16.5,0.367,16.5,0.817v10.366C16.5,11.633,16.133,12,15.682,12"/>
<polygon fill="#FFFFFF" points="8.262,8.244 1.678,2.676 2.001,2.294 8.262,7.59 14.5,2.313 14.822,2.695 "/>
</svg>
