<?xml version="1.0" encoding="utf-8"?>
<!-- Generator: Adobe Illustrator 15.0.0, SVG Export Plug-In  -->
<!DOCTYPE svg PUBLIC "-//W3C//DTD SVG 1.1//EN" "http://www.w3.org/Graphics/SVG/1.1/DTD/svg11.dtd" [
	<!ENTITY ns_flows "http://ns.adobe.com/Flows/1.0/">
]>
<svg version="1.1"
	 xmlns="http://www.w3.org/2000/svg" xmlns:xlink="http://www.w3.org/1999/xlink" xmlns:a="http://ns.adobe.com/AdobeSVGViewerExtensions/3.0/"
	 x="0px" y="0px" width="24px" height="24px" viewBox="-3.814 -3.814 24 24" enable-background="new -3.814 -3.814 24 24"
	 xml:space="preserve">
<defs>
</defs>
<path fill="#FFFFFF" d="M8.995,16.036c-0.207,0.207-0.492,0.335-0.81,0.335c-0.632,0-1.144-0.512-1.144-1.145V1.146
	C7.042,0.513,7.554,0,8.186,0c0.633,0,1.145,0.513,1.145,1.146v14.081C9.331,15.543,9.202,15.829,8.995,16.036"/>
<path fill="#FFFFFF" d="M16.038,8.996c-0.207,0.207-0.494,0.335-0.811,0.335L1.145,9.33C0.513,9.33,0,8.818,0,8.186
	c0-0.632,0.513-1.145,1.145-1.145h14.083c0.633,0,1.145,0.513,1.145,1.146C16.372,8.503,16.243,8.789,16.038,8.996"/>
</svg>
