<?xml version="1.0" encoding="utf-8"?>
<!-- Generator: Adobe Illustrator 15.0.0, SVG Export Plug-In . SVG Version: 6.00 Build 0)  -->
<!DOCTYPE svg PUBLIC "-//W3C//DTD SVG 1.1//EN" "http://www.w3.org/Graphics/SVG/1.1/DTD/svg11.dtd">
<svg version="1.1" id="Layer_1" xmlns="http://www.w3.org/2000/svg" xmlns:xlink="http://www.w3.org/1999/xlink" x="0px" y="0px"
	 width="24px" height="24px" viewBox="0 0 24 24" enable-background="new 0 0 24 24" xml:space="preserve">
<g>
	<path fill="#FFFFFF" d="M13.99,12.161c-0.066,0.113-0.214,0.15-0.326,0.084c-0.113-0.067-0.15-0.213-0.084-0.327
		c0.537-0.91,0.741-1.964,0.612-2.982c-0.126-0.995-0.573-1.959-1.339-2.724c-0.917-0.917-2.119-1.375-3.321-1.375
		S7.129,5.294,6.214,6.21H6.213l0.001,0.001c-0.917,0.917-1.376,2.119-1.376,3.32c0,1.202,0.459,2.404,1.376,3.321
		c0.916,0.917,2.118,1.375,3.318,1.375c1.203,0,2.406-0.458,3.322-1.375c0.093-0.092,0.245-0.092,0.337,0.001
		c0.092,0.094,0.092,0.244-0.001,0.338c-1.011,1.01-2.334,1.514-3.658,1.514c-1.322,0-2.647-0.504-3.657-1.514
		c-1.011-1.011-1.516-2.335-1.516-3.66c0-1.323,0.505-2.647,1.516-3.658v0.001c1.012-1.011,2.336-1.516,3.657-1.516
		c1.324,0,2.649,0.505,3.659,1.515c0.842,0.842,1.334,1.904,1.473,3.002C14.808,9.998,14.582,11.159,13.99,12.161"/>
	<path fill="#FFFFFF" d="M12.854,13.19c-0.093-0.093-0.093-0.245,0-0.338c0.094-0.093,0.245-0.093,0.338,0l1.362,1.362
		c0.093,0.093,0.093,0.244,0,0.338c-0.093,0.093-0.245,0.093-0.338,0L12.854,13.19z"/>
	<path fill="#FFFFFF" d="M14.593,14.593L14.593,14.593L14.593,14.593c-0.073,0.073-0.109,0.171-0.109,0.267
		c0,0.098,0.036,0.195,0.108,0.268h0.001l1.309,1.309l1.309,1.309l1.309,1.309h0.001c0.071,0.072,0.17,0.109,0.266,0.109
		c0.097,0,0.194-0.037,0.268-0.109l0,0l0,0c0.073-0.072,0.11-0.17,0.11-0.268c0-0.096-0.037-0.193-0.11-0.266v-0.002l-1.309-1.309
		L16.436,15.9l-1.309-1.308l0.001-0.001c-0.073-0.072-0.17-0.109-0.268-0.109C14.764,14.482,14.666,14.52,14.593,14.593
		 M14.255,14.255L14.255,14.255c0.167-0.167,0.387-0.25,0.605-0.25c0.218,0,0.437,0.083,0.603,0.25h0.001h0.001l1.309,1.308
		l1.309,1.309l1.309,1.309l0.001,0.002c0.165,0.166,0.249,0.385,0.249,0.604c0,0.217-0.084,0.438-0.249,0.604l-0.001,0.002h0.001
		h-0.001c-0.166,0.166-0.387,0.25-0.605,0.25c-0.218,0-0.438-0.084-0.604-0.25H18.18l-1.308-1.309l-1.309-1.309l-1.309-1.309
		c-0.167-0.168-0.25-0.387-0.25-0.605S14.088,14.422,14.255,14.255z"/>
</g>
</svg>
