<?xml version="1.0" encoding="UTF-8" standalone="no"?>
<svg
   xmlns:dc="http://purl.org/dc/elements/1.1/"
   xmlns:cc="http://creativecommons.org/ns#"
   xmlns:rdf="http://www.w3.org/1999/02/22-rdf-syntax-ns#"
   xmlns:svg="http://www.w3.org/2000/svg"
   xmlns="http://www.w3.org/2000/svg"
   xmlns:sodipodi="http://sodipodi.sourceforge.net/DTD/sodipodi-0.dtd"
   xmlns:inkscape="http://www.inkscape.org/namespaces/inkscape"
   viewBox="0 0 53.104 45.619991"
   id="svg2"
   version="1.1"
   inkscape:version="0.91 r"
   sodipodi:docname="icon.svg">
  <metadata
     id="metadata65">
    <rdf:RDF>
      <cc:Work
         rdf:about="">
        <dc:format>image/svg+xml</dc:format>
        <dc:type
           rdf:resource="http://purl.org/dc/dcmitype/StillImage" />
        <dc:title></dc:title>
      </cc:Work>
    </rdf:RDF>
  </metadata>
  <sodipodi:namedview
     pagecolor="#ffffff"
     bordercolor="#666666"
     borderopacity="1"
     objecttolerance="10"
     gridtolerance="10"
     guidetolerance="10"
     inkscape:pageopacity="0"
     inkscape:pageshadow="2"
     inkscape:window-width="1920"
     inkscape:window-height="1023"
     id="namedview63"
     showgrid="false"
     inkscape:zoom="5.1731706"
     inkscape:cx="-10.465917"
     inkscape:cy="22.809996"
     inkscape:window-x="0"
     inkscape:window-y="30"
     inkscape:window-maximized="1"
     inkscape:current-layer="svg2" />
  <defs
     id="defs4">
    <linearGradient
       gradientUnits="userSpaceOnUse"
       id="linearGradient6482"
       x2="0"
       y1="233.68151"
       y2="250.69548">
      <stop
         offset="0"
         stop-color="#006f9d"
         id="stop7" />
      <stop
         offset="1"
         stop-color="#7bcefb"
         id="stop9" />
    </linearGradient>
    <linearGradient
       gradientTransform="matrix(-.867067,0,0,-.594693,497.8279,258.6143)"
       gradientUnits="userSpaceOnUse"
       id="linearGradient6484"
       x1="-53.42761"
       x2="-31.5861"
       y1="109.7897"
       y2="95.68434">
      <stop
         offset="0"
         stop-color="#83cb46"
         id="stop12" />
      <stop
         offset="1"
         stop-color="#fff"
         id="stop14" />
    </linearGradient>
    <linearGradient
       gradientTransform="scale(-1.20748,-.82817)"
       gradientUnits="userSpaceOnUse"
       id="linearGradient6486"
       x1="-451.30542"
       x2="-434.33966"
       y1="-228.70355"
       y2="-246.57704">
      <stop
         offset="0"
         stop-color="#80ff26"
         id="stop17" />
      <stop
         offset="1"
         stop-color="#2c9600"
         id="stop19" />
    </linearGradient>
  </defs>
  <g
     transform="translate(-497.13425,-164.36795)"
     id="g21"
     inkscape:export-filename="/home/sergio/Imágenes/left_menu.png"
     inkscape:export-xdpi="252.52335"
     inkscape:export-ydpi="252.52335">
    <g
       transform="translate(6.70307,-72)"
       id="g23">
      <path
         d="m492.30618,237.85928h44.92123a1,1 0 0,1 1,1v34.07683a1,1 0 0,1 -1,1h-44.92123a1,1 0 0,1 -1-1v-34.07683a1,1 0 0,1 1-1"
         fill="#e5e7f6"
         stroke="#0f2965"
         stroke-width="1.75"
         id="path25" />
      <g
         fill="#2dabdc"
         transform="translate(639.8727,179.8918)"
         id="g27">
        <path
           d="m-135.82384,70.90651h16.37932a1,1 0 0,1 1,1v.45058a1,1 0 0,1 -1,1h-16.37932a1,1 0 0,1 -1-1v-.45058a1,1 0 0,1 1-1"
           id="path29" />
        <path
           d="m141.09126,70.90651h2.08429a1,1 0 0,1 1,1v.45058a1,1 0 0,1 -1,1h-2.08429a1,1 0 0,1 -1-1v-.45058a1,1 0 0,1 1-1"
           transform="scale(-1,1)"
           id="path31" />
      </g>
      <g
         fill="#2dabdc"
         transform="translate(639.8727,184.7589)"
         id="g33">
        <path
           d="m-135.82384,70.90651h16.37932a1,1 0 0,1 1,1v.45058a1,1 0 0,1 -1,1h-16.37932a1,1 0 0,1 -1-1v-.45058a1,1 0 0,1 1-1"
           id="path35" />
        <path
           d="m141.09126,70.90651h2.08429a1,1 0 0,1 1,1v.45058a1,1 0 0,1 -1,1h-2.08429a1,1 0 0,1 -1-1v-.45058a1,1 0 0,1 1-1"
           transform="scale(-1,1)"
           id="path37" />
      </g>
      <g
         fill="#2dabdc"
         transform="translate(639.8727,189.6261)"
         id="g39">
        <path
           d="m-135.82384,70.90651h16.37932a1,1 0 0,1 1,1v.45058a1,1 0 0,1 -1,1h-16.37932a1,1 0 0,1 -1-1v-.45058a1,1 0 0,1 1-1"
           id="path41" />
        <path
           d="m141.09126,70.90651h2.08429a1,1 0 0,1 1,1v.45058a1,1 0 0,1 -1,1h-2.08429a1,1 0 0,1 -1-1v-.45058a1,1 0 0,1 1-1"
           transform="scale(-1,1)"
           id="path43" />
      </g>
      <g
         fill="#2dabdc"
         transform="translate(639.8727,194.4931)"
         id="g45">
        <path
           d="m-135.82384,70.90651h16.37932a1,1 0 0,1 1,1v.45058a1,1 0 0,1 -1,1h-16.37932a1,1 0 0,1 -1-1v-.45058a1,1 0 0,1 1-1"
           id="path47" />
        <path
           d="m141.09126,70.90651h2.08429a1,1 0 0,1 1,1v.45058a1,1 0 0,1 -1,1h-2.08429a1,1 0 0,1 -1-1v-.45058a1,1 0 0,1 1-1"
           transform="scale(-1,1)"
           id="path49" />
      </g>
      <path
         d="m492.30618,237.24295h44.92123a1,1 0 0,1 1,1v5.74185a1,1 0 0,1 -1,1h-44.92123a1,1 0 0,1 -1-1v-5.74185a1,1 0 0,1 1-1"
         fill="url(#linearGradient6482)"
         stroke="#0f2965"
         stroke-width="1.75"
         id="path51" />
      <g
         fill="#2dabdc"
         transform="translate(639.8727,184.7589)"
         id="g53">
        <path
           d="m-135.82384,70.90651h16.37932a1,1 0 0,1 1,1v.45058a1,1 0 0,1 -1,1h-16.37932a1,1 0 0,1 -1-1v-.45058a1,1 0 0,1 1-1"
           id="path55" />
        <path
           d="m141.09126,70.90651h2.08429a1,1 0 0,1 1,1v.45058a1,1 0 0,1 -1,1h-2.08429a1,1 0 0,1 -1-1v-.45058a1,1 0 0,1 1-1"
           transform="scale(-1,1)"
           id="path57" />
      </g>
    </g>
    <path
       d="m531.84607,206.67544v-3.85967h15.07968v-11.04048h-15.07968v-3.88211l-10.00824,9.40235 10.00824,9.37991z"
       fill="url(#linearGradient6484)"
       stroke="#fff"
       stroke-linecap="round"
       stroke-linejoin="round"
       stroke-width="6.625"
       id="path59" />
    <path
       d="m531.84607,206.67544v-3.85967h15.07968v-11.04048h-15.07968v-3.88211l-10.00824,9.40235 10.00824,9.37991z"
       fill="url(#linearGradient6486)"
       stroke="#116b1c"
       stroke-linejoin="round"
       stroke-width="1.75"
       id="path61" />
  </g>
</svg>
